<svg width="24" height="24" viewBox="0 0 24 24" fill="none" xmlns="http://www.w3.org/2000/svg">
<rect width="24" height="24" fill="#F5F5F5"/>
<g id="UI Icons">
<path d="M-39 -302C-39 -303.105 -38.1046 -304 -37 -304H533C534.105 -304 535 -303.105 535 -302V599C535 600.105 534.105 601 533 601H-37C-38.1046 601 -39 600.105 -39 599V-302Z" fill="white"/>
<path d="M-37 -304V-303H533V-304V-305H-37V-304ZM535 -302H534V599H535H536V-302H535ZM533 601V600H-37V601V602H533V601ZM-39 599H-38V-302H-39H-40V599H-39ZM-37 601V600C-37.5523 600 -38 599.552 -38 599H-39H-40C-40 600.657 -38.6569 602 -37 602V601ZM535 599H534C534 599.552 533.552 600 533 600V601V602C534.657 602 536 600.657 536 599H535ZM533 -304V-303C533.552 -303 534 -302.552 534 -302H535H536C536 -303.657 534.657 -305 533 -305V-304ZM-37 -304V-305C-38.6569 -305 -40 -303.657 -40 -302H-39H-38C-38 -302.552 -37.5523 -303 -37 -303V-304Z" fill="white" fill-opacity="0.1"/>
<g id="Filled">
<rect width="398" height="58" fill="white"/>
<g id="icon/scheduleFilled">
<path id="Vector" d="M15.473 16.527L16.527 15.473L12.75 11.696V7H11.25V12.3038L15.473 16.527ZM12.0017 21.5C10.6877 21.5 9.45267 21.2507 8.2965 20.752C7.14033 20.2533 6.13467 19.5766 5.2795 18.7218C4.42433 17.8669 3.74725 16.8617 3.24825 15.706C2.74942 14.5503 2.5 13.3156 2.5 12.0017C2.5 10.6877 2.74933 9.45267 3.248 8.2965C3.74667 7.14033 4.42342 6.13467 5.27825 5.2795C6.13308 4.42433 7.13833 3.74725 8.294 3.24825C9.44967 2.74942 10.6844 2.5 11.9983 2.5C13.3123 2.5 14.5473 2.74933 15.7035 3.248C16.8597 3.74667 17.8653 4.42342 18.7205 5.27825C19.5757 6.13308 20.2528 7.13833 20.7518 8.294C21.2506 9.44967 21.5 10.6844 21.5 11.9983C21.5 13.3123 21.2507 14.5473 20.752 15.7035C20.2533 16.8597 19.5766 17.8653 18.7218 18.7205C17.8669 19.5757 16.8617 20.2528 15.706 20.7518C14.5503 21.2506 13.3156 21.5 12.0017 21.5Z" fill="#424242"/>
</g>
</g>
</g>
</svg>
