<svg width="24" height="24" viewBox="0 0 24 24" fill="none" xmlns="http://www.w3.org/2000/svg">
<rect width="24" height="24" fill="#F5F5F5"/>
<g id="UI Icons">
<path d="M-107 -302C-107 -303.105 -106.105 -304 -105 -304H465C466.105 -304 467 -303.105 467 -302V599C467 600.105 466.105 601 465 601H-105C-106.105 601 -107 600.105 -107 599V-302Z" fill="white"/>
<path d="M-105 -304V-303H465V-304V-305H-105V-304ZM467 -302H466V599H467H468V-302H467ZM465 601V600H-105V601V602H465V601ZM-107 599H-106V-302H-107H-108V599H-107ZM-105 601V600C-105.552 600 -106 599.552 -106 599H-107H-108C-108 600.657 -106.657 602 -105 602V601ZM467 599H466C466 599.552 465.552 600 465 600V601V602C466.657 602 468 600.657 468 599H467ZM465 -304V-303C465.552 -303 466 -302.552 466 -302H467H468C468 -303.657 466.657 -305 465 -305V-304ZM-105 -304V-305C-106.657 -305 -108 -303.657 -108 -302H-107H-106C-106 -302.552 -105.552 -303 -105 -303V-304Z" fill="white" fill-opacity="0.1"/>
<g id="Filled">
<rect width="398" height="58" transform="translate(-68)" fill="white"/>
<g id="icon/windowFilled">
<path id="Vector" d="M12.75 12.75H20.5V18.6923C20.5 19.1894 20.323 19.615 19.969 19.969C19.615 20.323 19.1894 20.5 18.6923 20.5H12.75V12.75ZM12.75 11.25V3.5H18.6923C19.1894 3.5 19.615 3.677 19.969 4.031C20.323 4.385 20.5 4.81058 20.5 5.30775V11.25H12.75ZM11.25 11.25H3.5V5.30775C3.5 4.81058 3.677 4.385 4.031 4.031C4.385 3.677 4.81058 3.5 5.30775 3.5H11.25V11.25ZM11.25 12.75V20.5H5.30775C4.81058 20.5 4.385 20.323 4.031 19.969C3.677 19.615 3.5 19.1894 3.5 18.6923V12.75H11.25Z" fill="#424242"/>
</g>
</g>
</g>
</svg>
